%TF.GenerationSoftware,KiCad,Pcbnew,8.0.5*%
%TF.CreationDate,2024-10-16T14:13:12+03:00*%
%TF.ProjectId,H2Car_BatteryLevelndicator,48324361-725f-4426-9174-746572794c65,rev?*%
%TF.SameCoordinates,Original*%
%TF.FileFunction,Copper,L1,Top*%
%TF.FilePolarity,Positive*%
%FSLAX46Y46*%
G04 Gerber Fmt 4.6, Leading zero omitted, Abs format (unit mm)*
G04 Created by KiCad (PCBNEW 8.0.5) date 2024-10-16 14:13:12*
%MOMM*%
%LPD*%
G01*
G04 APERTURE LIST*
G04 Aperture macros list*
%AMRoundRect*
0 Rectangle with rounded corners*
0 $1 Rounding radius*
0 $2 $3 $4 $5 $6 $7 $8 $9 X,Y pos of 4 corners*
0 Add a 4 corners polygon primitive as box body*
4,1,4,$2,$3,$4,$5,$6,$7,$8,$9,$2,$3,0*
0 Add four circle primitives for the rounded corners*
1,1,$1+$1,$2,$3*
1,1,$1+$1,$4,$5*
1,1,$1+$1,$6,$7*
1,1,$1+$1,$8,$9*
0 Add four rect primitives between the rounded corners*
20,1,$1+$1,$2,$3,$4,$5,0*
20,1,$1+$1,$4,$5,$6,$7,0*
20,1,$1+$1,$6,$7,$8,$9,0*
20,1,$1+$1,$8,$9,$2,$3,0*%
G04 Aperture macros list end*
%TA.AperFunction,ComponentPad*%
%ADD10RoundRect,0.250002X-1.499998X-1.499998X1.499998X-1.499998X1.499998X1.499998X-1.499998X1.499998X0*%
%TD*%
%TA.AperFunction,SMDPad,CuDef*%
%ADD11RoundRect,0.500000X-0.875000X-0.500000X0.875000X-0.500000X0.875000X0.500000X-0.875000X0.500000X0*%
%TD*%
%TA.AperFunction,SMDPad,CuDef*%
%ADD12RoundRect,0.275000X0.975000X0.275000X-0.975000X0.275000X-0.975000X-0.275000X0.975000X-0.275000X0*%
%TD*%
%TA.AperFunction,SMDPad,CuDef*%
%ADD13RoundRect,0.275000X-0.275000X0.975000X-0.275000X-0.975000X0.275000X-0.975000X0.275000X0.975000X0*%
%TD*%
%TA.AperFunction,SMDPad,CuDef*%
%ADD14C,1.700000*%
%TD*%
%TA.AperFunction,ComponentPad*%
%ADD15RoundRect,0.250000X0.600000X0.750000X-0.600000X0.750000X-0.600000X-0.750000X0.600000X-0.750000X0*%
%TD*%
%TA.AperFunction,ComponentPad*%
%ADD16O,1.700000X2.000000*%
%TD*%
%TA.AperFunction,ViaPad*%
%ADD17C,0.800000*%
%TD*%
%TA.AperFunction,Conductor*%
%ADD18C,0.500000*%
%TD*%
%TA.AperFunction,Conductor*%
%ADD19C,0.300000*%
%TD*%
G04 APERTURE END LIST*
D10*
%TO.P,J1,1,Pin_1*%
%TO.N,/+7.6VSupply*%
X80848200Y-95148400D03*
%TD*%
%TO.P,J3,1,Pin_1*%
%TO.N,GND*%
X94996000Y-95148400D03*
%TD*%
D11*
%TO.P,U1,1,PA02_A0_D0*%
%TO.N,/VBat*%
X79829000Y-70519100D03*
%TO.P,U1,2,PA4_A1_D1*%
%TO.N,unconnected-(U1-PA4_A1_D1-Pad2)*%
X79829000Y-73059100D03*
%TO.P,U1,3,PA10_A2_D2*%
%TO.N,unconnected-(U1-PA10_A2_D2-Pad3)*%
X79829000Y-75599100D03*
%TO.P,U1,4,PA11_A3_D3*%
%TO.N,unconnected-(U1-PA11_A3_D3-Pad4)*%
X79829000Y-78139100D03*
%TO.P,U1,5,PA8_A4_D4_SDA*%
%TO.N,unconnected-(U1-PA8_A4_D4_SDA-Pad5)*%
X79829000Y-80679100D03*
%TO.P,U1,6,PA9_A5_D5_SCL*%
%TO.N,unconnected-(U1-PA9_A5_D5_SCL-Pad6)*%
X79829000Y-83219100D03*
%TO.P,U1,7,PB08_A6_D6_TX*%
%TO.N,unconnected-(U1-PB08_A6_D6_TX-Pad7)*%
X79829000Y-85759100D03*
%TO.P,U1,8,PB09_A7_D7_RX*%
%TO.N,unconnected-(U1-PB09_A7_D7_RX-Pad8)*%
X95994000Y-85759100D03*
%TO.P,U1,9,PA7_A8_D8_SCK*%
%TO.N,unconnected-(U1-PA7_A8_D8_SCK-Pad9)*%
X95994000Y-83219100D03*
%TO.P,U1,10,PA5_A9_D9_MISO*%
%TO.N,unconnected-(U1-PA5_A9_D9_MISO-Pad10)*%
X95994000Y-80679100D03*
%TO.P,U1,11,PA6_A10_D10_MOSI*%
%TO.N,unconnected-(U1-PA6_A10_D10_MOSI-Pad11)*%
X95994000Y-78139100D03*
%TO.P,U1,12,3V3*%
%TO.N,3.3Vcc*%
X95994000Y-75599100D03*
%TO.P,U1,13,GND*%
%TO.N,GND*%
X95994000Y-73059100D03*
%TO.P,U1,14,5V*%
%TO.N,unconnected-(U1-5V-Pad14)*%
X95994000Y-70519100D03*
D12*
%TO.P,U1,15,BAT*%
%TO.N,unconnected-(U1-BAT-Pad15)*%
X83439000Y-77825600D03*
%TO.P,U1,16,GND*%
%TO.N,unconnected-(U1-GND-Pad16)*%
X83439000Y-75920600D03*
D13*
%TO.P,U1,17,NFC1*%
%TO.N,unconnected-(U1-NFC1-Pad17)*%
X91694000Y-87376000D03*
%TO.P,U1,18,NFC2*%
%TO.N,unconnected-(U1-NFC2-Pad18)*%
X93599000Y-87376000D03*
D14*
%TO.P,U1,19,PA31_SWDIO*%
%TO.N,unconnected-(U1-PA31_SWDIO-Pad19)*%
X86614000Y-69570600D03*
%TO.P,U1,20,PA30_SWCLK*%
%TO.N,unconnected-(U1-PA30_SWCLK-Pad20)*%
X89154000Y-69570600D03*
%TO.P,U1,21,RESET*%
%TO.N,unconnected-(U1-RESET-Pad21)*%
X86614000Y-72110600D03*
%TO.P,U1,22,GND*%
%TO.N,unconnected-(U1-GND-Pad22)*%
X89154000Y-72110600D03*
%TD*%
D15*
%TO.P,J2,1,Pin_1*%
%TO.N,GND*%
X89159400Y-91546000D03*
D16*
%TO.P,J2,2,Pin_2*%
%TO.N,/+7.6VSupply*%
X86659400Y-91546000D03*
%TD*%
D17*
%TO.N,GND*%
X93446600Y-73025000D03*
%TO.N,3.3Vcc*%
X93675200Y-76123800D03*
%TO.N,/VBat*%
X82143600Y-70510400D03*
%TD*%
D18*
%TO.N,GND*%
X95994000Y-73059100D02*
X93480700Y-73059100D01*
X93480700Y-73059100D02*
X93446600Y-73025000D01*
%TO.N,3.3Vcc*%
X95469300Y-76123800D02*
X95994000Y-75599100D01*
X93675200Y-76123800D02*
X95469300Y-76123800D01*
D19*
%TO.N,/VBat*%
X82143600Y-70510400D02*
X79837700Y-70510400D01*
X79837700Y-70510400D02*
X79829000Y-70519100D01*
%TD*%
M02*
