%TF.GenerationSoftware,KiCad,Pcbnew,8.0.5*%
%TF.CreationDate,2024-10-16T14:13:12+03:00*%
%TF.ProjectId,H2Car_BatteryLevelndicator,48324361-725f-4426-9174-746572794c65,rev?*%
%TF.SameCoordinates,Original*%
%TF.FileFunction,Copper,L2,Bot*%
%TF.FilePolarity,Positive*%
%FSLAX46Y46*%
G04 Gerber Fmt 4.6, Leading zero omitted, Abs format (unit mm)*
G04 Created by KiCad (PCBNEW 8.0.5) date 2024-10-16 14:13:12*
%MOMM*%
%LPD*%
G01*
G04 APERTURE LIST*
G04 Aperture macros list*
%AMRoundRect*
0 Rectangle with rounded corners*
0 $1 Rounding radius*
0 $2 $3 $4 $5 $6 $7 $8 $9 X,Y pos of 4 corners*
0 Add a 4 corners polygon primitive as box body*
4,1,4,$2,$3,$4,$5,$6,$7,$8,$9,$2,$3,0*
0 Add four circle primitives for the rounded corners*
1,1,$1+$1,$2,$3*
1,1,$1+$1,$4,$5*
1,1,$1+$1,$6,$7*
1,1,$1+$1,$8,$9*
0 Add four rect primitives between the rounded corners*
20,1,$1+$1,$2,$3,$4,$5,0*
20,1,$1+$1,$4,$5,$6,$7,0*
20,1,$1+$1,$6,$7,$8,$9,0*
20,1,$1+$1,$8,$9,$2,$3,0*%
G04 Aperture macros list end*
%TA.AperFunction,ComponentPad*%
%ADD10RoundRect,0.250002X-1.499998X-1.499998X1.499998X-1.499998X1.499998X1.499998X-1.499998X1.499998X0*%
%TD*%
%TA.AperFunction,SMDPad,CuDef*%
%ADD11RoundRect,0.250000X0.325000X0.650000X-0.325000X0.650000X-0.325000X-0.650000X0.325000X-0.650000X0*%
%TD*%
%TA.AperFunction,SMDPad,CuDef*%
%ADD12RoundRect,0.150000X0.150000X-0.512500X0.150000X0.512500X-0.150000X0.512500X-0.150000X-0.512500X0*%
%TD*%
%TA.AperFunction,SMDPad,CuDef*%
%ADD13RoundRect,0.250000X0.925000X-0.412500X0.925000X0.412500X-0.925000X0.412500X-0.925000X-0.412500X0*%
%TD*%
%TA.AperFunction,SMDPad,CuDef*%
%ADD14RoundRect,0.250000X0.450000X-0.262500X0.450000X0.262500X-0.450000X0.262500X-0.450000X-0.262500X0*%
%TD*%
%TA.AperFunction,SMDPad,CuDef*%
%ADD15RoundRect,0.100000X0.100000X-0.130000X0.100000X0.130000X-0.100000X0.130000X-0.100000X-0.130000X0*%
%TD*%
%TA.AperFunction,ComponentPad*%
%ADD16RoundRect,0.250000X0.600000X0.750000X-0.600000X0.750000X-0.600000X-0.750000X0.600000X-0.750000X0*%
%TD*%
%TA.AperFunction,ComponentPad*%
%ADD17O,1.700000X2.000000*%
%TD*%
%TA.AperFunction,SMDPad,CuDef*%
%ADD18RoundRect,0.250000X-0.450000X0.262500X-0.450000X-0.262500X0.450000X-0.262500X0.450000X0.262500X0*%
%TD*%
%TA.AperFunction,ViaPad*%
%ADD19C,0.800000*%
%TD*%
%TA.AperFunction,Conductor*%
%ADD20C,0.500000*%
%TD*%
%TA.AperFunction,Conductor*%
%ADD21C,0.300000*%
%TD*%
G04 APERTURE END LIST*
D10*
%TO.P,J1,1,Pin_1*%
%TO.N,/+7.6VSupply*%
X80848200Y-95148400D03*
%TD*%
%TO.P,J3,1,Pin_1*%
%TO.N,GND*%
X94996000Y-95148400D03*
%TD*%
D11*
%TO.P,C1,1*%
%TO.N,/+7.6VSupply*%
X84839600Y-84759800D03*
%TO.P,C1,2*%
%TO.N,GND*%
X81889600Y-84759800D03*
%TD*%
D12*
%TO.P,U3,1,IN*%
%TO.N,/+7.6VSupply*%
X88910200Y-84785200D03*
%TO.P,U3,2,GND*%
%TO.N,GND*%
X87960200Y-84785200D03*
%TO.P,U3,3,EN*%
%TO.N,/+7.6VSupply*%
X87010200Y-84785200D03*
%TO.P,U3,4,BP*%
%TO.N,Net-(U3-BP)*%
X87010200Y-82510200D03*
%TO.P,U3,5,OUT*%
%TO.N,3.3Vcc*%
X88910200Y-82510200D03*
%TD*%
D13*
%TO.P,C3,1*%
%TO.N,3.3Vcc*%
X90297000Y-79476600D03*
%TO.P,C3,2*%
%TO.N,GND*%
X90297000Y-76401600D03*
%TD*%
D14*
%TO.P,R1,1*%
%TO.N,/+7.6VSupply*%
X83910800Y-72339200D03*
%TO.P,R1,2*%
%TO.N,/VBat*%
X83910800Y-70514200D03*
%TD*%
D15*
%TO.P,C2,1*%
%TO.N,Net-(U3-BP)*%
X87020400Y-80797800D03*
%TO.P,C2,2*%
%TO.N,GND*%
X87020400Y-80157800D03*
%TD*%
D16*
%TO.P,J2,1,Pin_1*%
%TO.N,GND*%
X89159400Y-91546000D03*
D17*
%TO.P,J2,2,Pin_2*%
%TO.N,/+7.6VSupply*%
X86659400Y-91546000D03*
%TD*%
D18*
%TO.P,R2,1*%
%TO.N,/VBat*%
X86410800Y-70514200D03*
%TO.P,R2,2*%
%TO.N,GND*%
X86410800Y-72339200D03*
%TD*%
D19*
%TO.N,GND*%
X93446600Y-73025000D03*
%TO.N,3.3Vcc*%
X93675200Y-76123800D03*
%TO.N,/VBat*%
X82143600Y-70510400D03*
%TD*%
D20*
%TO.N,3.3Vcc*%
X88910200Y-80863400D02*
X90297000Y-79476600D01*
X88910200Y-82510200D02*
X88910200Y-80863400D01*
X90322400Y-79476600D02*
X93675200Y-76123800D01*
X90297000Y-79476600D02*
X90322400Y-79476600D01*
D21*
%TO.N,Net-(U3-BP)*%
X87010200Y-82510200D02*
X87010200Y-80808000D01*
X87010200Y-80808000D02*
X87020400Y-80797800D01*
D20*
%TO.N,/+7.6VSupply*%
X85136400Y-91546000D02*
X86659400Y-91546000D01*
X81534000Y-95148400D02*
X85136400Y-91546000D01*
X88910200Y-84785200D02*
X88910200Y-87914400D01*
X86984800Y-84759800D02*
X87010200Y-84785200D01*
X80848200Y-95148400D02*
X81534000Y-95148400D01*
X87010200Y-89814400D02*
X87010200Y-91195200D01*
D21*
X84839600Y-84759800D02*
X84839600Y-73268000D01*
X84839600Y-73268000D02*
X83910800Y-72339200D01*
D20*
X84839600Y-84759800D02*
X86984800Y-84759800D01*
X87010200Y-91195200D02*
X86659400Y-91546000D01*
X88910200Y-87914400D02*
X87010200Y-89814400D01*
X87010200Y-84785200D02*
X87010200Y-89814400D01*
X87010200Y-91423800D02*
X86888000Y-91546000D01*
D21*
%TO.N,/VBat*%
X83910800Y-70514200D02*
X86410800Y-70514200D01*
X83910800Y-70514200D02*
X82147400Y-70514200D01*
X82147400Y-70514200D02*
X82143600Y-70510400D01*
%TD*%
%TA.AperFunction,Conductor*%
%TO.N,GND*%
G36*
X100373468Y-66150475D02*
G01*
X100382088Y-66150474D01*
X100382092Y-66150476D01*
X100441896Y-66150474D01*
X100454045Y-66151070D01*
X100585958Y-66164060D01*
X100609798Y-66168801D01*
X100730786Y-66205500D01*
X100753230Y-66214796D01*
X100864747Y-66274400D01*
X100884951Y-66287899D01*
X100970322Y-66357958D01*
X100982687Y-66368106D01*
X100999875Y-66385294D01*
X101080080Y-66483019D01*
X101093584Y-66503227D01*
X101102606Y-66520105D01*
X101153185Y-66614729D01*
X101162487Y-66637184D01*
X101172898Y-66671500D01*
X101196639Y-66749758D01*
X101199191Y-66758168D01*
X101203934Y-66782010D01*
X101205050Y-66793337D01*
X101216112Y-66905635D01*
X101216877Y-66913394D01*
X101217474Y-66925551D01*
X101217474Y-100120474D01*
X101217472Y-100120508D01*
X101217473Y-100187894D01*
X101216876Y-100200048D01*
X101203887Y-100331949D01*
X101199145Y-100355790D01*
X101162449Y-100476769D01*
X101153147Y-100499228D01*
X101093553Y-100610723D01*
X101080047Y-100630936D01*
X100999847Y-100728659D01*
X100982659Y-100745847D01*
X100884936Y-100826047D01*
X100864723Y-100839553D01*
X100753228Y-100899147D01*
X100730769Y-100908449D01*
X100609790Y-100945145D01*
X100585949Y-100949887D01*
X100454048Y-100962876D01*
X100441894Y-100963473D01*
X100390100Y-100963472D01*
X100382092Y-100963472D01*
X100382091Y-100963472D01*
X100373468Y-100963472D01*
X100373440Y-100963474D01*
X75054080Y-100963474D01*
X75041924Y-100962877D01*
X75006721Y-100959409D01*
X74910021Y-100949883D01*
X74886180Y-100945140D01*
X74765207Y-100908440D01*
X74742749Y-100899137D01*
X74631261Y-100839542D01*
X74611051Y-100826037D01*
X74513329Y-100745836D01*
X74496140Y-100728647D01*
X74415942Y-100630922D01*
X74402443Y-100610718D01*
X74342844Y-100499210D01*
X74333546Y-100476758D01*
X74296853Y-100355787D01*
X74292111Y-100331946D01*
X74279071Y-100199517D01*
X74278474Y-100187362D01*
X74278476Y-100128092D01*
X74278474Y-100128087D01*
X74278475Y-100120508D01*
X74278474Y-100120474D01*
X74278474Y-98949778D01*
X74799500Y-98949778D01*
X74799500Y-99170221D01*
X74833985Y-99387952D01*
X74902103Y-99597603D01*
X74902104Y-99597606D01*
X75002187Y-99794025D01*
X75131752Y-99972358D01*
X75131756Y-99972363D01*
X75287636Y-100128243D01*
X75287641Y-100128247D01*
X75385737Y-100199517D01*
X75465978Y-100257815D01*
X75594375Y-100323237D01*
X75662393Y-100357895D01*
X75662396Y-100357896D01*
X75767221Y-100391955D01*
X75872049Y-100426015D01*
X76089778Y-100460500D01*
X76089779Y-100460500D01*
X76310221Y-100460500D01*
X76310222Y-100460500D01*
X76527951Y-100426015D01*
X76737606Y-100357895D01*
X76934022Y-100257815D01*
X77112365Y-100128242D01*
X77268242Y-99972365D01*
X77397815Y-99794022D01*
X77497895Y-99597606D01*
X77566015Y-99387951D01*
X77600500Y-99170222D01*
X77600500Y-98949778D01*
X97913500Y-98949778D01*
X97913500Y-99170221D01*
X97947985Y-99387952D01*
X98016103Y-99597603D01*
X98016104Y-99597606D01*
X98116187Y-99794025D01*
X98245752Y-99972358D01*
X98245756Y-99972363D01*
X98401636Y-100128243D01*
X98401641Y-100128247D01*
X98499737Y-100199517D01*
X98579978Y-100257815D01*
X98708375Y-100323237D01*
X98776393Y-100357895D01*
X98776396Y-100357896D01*
X98881221Y-100391955D01*
X98986049Y-100426015D01*
X99203778Y-100460500D01*
X99203779Y-100460500D01*
X99424221Y-100460500D01*
X99424222Y-100460500D01*
X99641951Y-100426015D01*
X99851606Y-100357895D01*
X100048022Y-100257815D01*
X100226365Y-100128242D01*
X100382242Y-99972365D01*
X100511815Y-99794022D01*
X100611895Y-99597606D01*
X100680015Y-99387951D01*
X100714500Y-99170222D01*
X100714500Y-98949778D01*
X100680015Y-98732049D01*
X100611895Y-98522394D01*
X100611895Y-98522393D01*
X100577237Y-98454375D01*
X100511815Y-98325978D01*
X100495260Y-98303192D01*
X100382247Y-98147641D01*
X100382243Y-98147636D01*
X100226363Y-97991756D01*
X100226358Y-97991752D01*
X100048025Y-97862187D01*
X100048024Y-97862186D01*
X100048022Y-97862185D01*
X99985096Y-97830122D01*
X99851606Y-97762104D01*
X99851603Y-97762103D01*
X99641952Y-97693985D01*
X99533086Y-97676742D01*
X99424222Y-97659500D01*
X99203778Y-97659500D01*
X99131201Y-97670995D01*
X98986047Y-97693985D01*
X98776396Y-97762103D01*
X98776393Y-97762104D01*
X98579974Y-97862187D01*
X98401641Y-97991752D01*
X98401636Y-97991756D01*
X98245756Y-98147636D01*
X98245752Y-98147641D01*
X98116187Y-98325974D01*
X98016104Y-98522393D01*
X98016103Y-98522396D01*
X97947985Y-98732047D01*
X97913500Y-98949778D01*
X77600500Y-98949778D01*
X77566015Y-98732049D01*
X77497895Y-98522394D01*
X77497895Y-98522393D01*
X77463237Y-98454375D01*
X77397815Y-98325978D01*
X77381260Y-98303192D01*
X77268247Y-98147641D01*
X77268243Y-98147636D01*
X77112363Y-97991756D01*
X77112358Y-97991752D01*
X76934025Y-97862187D01*
X76934024Y-97862186D01*
X76934022Y-97862185D01*
X76871096Y-97830122D01*
X76737606Y-97762104D01*
X76737603Y-97762103D01*
X76527952Y-97693985D01*
X76419086Y-97676742D01*
X76310222Y-97659500D01*
X76089778Y-97659500D01*
X76017201Y-97670995D01*
X75872047Y-97693985D01*
X75662396Y-97762103D01*
X75662393Y-97762104D01*
X75465974Y-97862187D01*
X75287641Y-97991752D01*
X75287636Y-97991756D01*
X75131756Y-98147636D01*
X75131752Y-98147641D01*
X75002187Y-98325974D01*
X74902104Y-98522393D01*
X74902103Y-98522396D01*
X74833985Y-98732047D01*
X74799500Y-98949778D01*
X74278474Y-98949778D01*
X74278474Y-93598385D01*
X78597700Y-93598385D01*
X78597700Y-96698399D01*
X78597701Y-96698416D01*
X78608200Y-96801195D01*
X78608201Y-96801198D01*
X78663314Y-96967517D01*
X78663386Y-96967733D01*
X78755489Y-97117055D01*
X78879545Y-97241111D01*
X79028867Y-97333214D01*
X79195404Y-97388399D01*
X79298193Y-97398900D01*
X82398206Y-97398899D01*
X82500996Y-97388399D01*
X82667533Y-97333214D01*
X82816855Y-97241111D01*
X82940911Y-97117055D01*
X83033014Y-96967733D01*
X83088199Y-96801196D01*
X83098700Y-96698407D01*
X83098699Y-94696428D01*
X83118384Y-94629390D01*
X83135013Y-94608753D01*
X84145351Y-93598415D01*
X92746000Y-93598415D01*
X92746000Y-94898400D01*
X94260700Y-94898400D01*
X94250783Y-94922341D01*
X94221000Y-95072069D01*
X94221000Y-95224731D01*
X94250783Y-95374459D01*
X94260700Y-95398400D01*
X92746001Y-95398400D01*
X92746001Y-96698384D01*
X92756494Y-96801095D01*
X92811641Y-96967517D01*
X92811643Y-96967522D01*
X92903684Y-97116744D01*
X93027655Y-97240715D01*
X93176877Y-97332756D01*
X93176882Y-97332758D01*
X93343304Y-97387905D01*
X93343311Y-97387906D01*
X93446021Y-97398399D01*
X94745999Y-97398399D01*
X94746000Y-97398398D01*
X94746000Y-95883700D01*
X94769941Y-95893617D01*
X94919669Y-95923400D01*
X95072331Y-95923400D01*
X95222059Y-95893617D01*
X95246000Y-95883700D01*
X95246000Y-97398399D01*
X96545970Y-97398399D01*
X96545984Y-97398398D01*
X96648695Y-97387905D01*
X96815117Y-97332758D01*
X96815122Y-97332756D01*
X96964344Y-97240715D01*
X97088315Y-97116744D01*
X97180356Y-96967522D01*
X97180358Y-96967517D01*
X97235505Y-96801095D01*
X97235506Y-96801088D01*
X97245999Y-96698384D01*
X97246000Y-96698371D01*
X97246000Y-95398400D01*
X95731300Y-95398400D01*
X95741217Y-95374459D01*
X95771000Y-95224731D01*
X95771000Y-95072069D01*
X95741217Y-94922341D01*
X95731300Y-94898400D01*
X97245999Y-94898400D01*
X97245999Y-93598430D01*
X97245998Y-93598415D01*
X97235505Y-93495704D01*
X97180358Y-93329282D01*
X97180356Y-93329277D01*
X97088315Y-93180055D01*
X96964344Y-93056084D01*
X96815122Y-92964043D01*
X96815117Y-92964041D01*
X96648695Y-92908894D01*
X96648688Y-92908893D01*
X96545984Y-92898400D01*
X95246000Y-92898400D01*
X95246000Y-94413099D01*
X95222059Y-94403183D01*
X95072331Y-94373400D01*
X94919669Y-94373400D01*
X94769941Y-94403183D01*
X94746000Y-94413099D01*
X94746000Y-92898400D01*
X93446030Y-92898400D01*
X93446014Y-92898401D01*
X93343304Y-92908894D01*
X93176882Y-92964041D01*
X93176877Y-92964043D01*
X93027655Y-93056084D01*
X92903684Y-93180055D01*
X92811643Y-93329277D01*
X92811641Y-93329282D01*
X92756494Y-93495704D01*
X92756493Y-93495711D01*
X92746000Y-93598415D01*
X84145351Y-93598415D01*
X85332509Y-92411258D01*
X85393830Y-92377775D01*
X85463522Y-92382759D01*
X85519455Y-92424631D01*
X85520506Y-92426056D01*
X85629290Y-92575785D01*
X85629294Y-92575790D01*
X85779613Y-92726109D01*
X85951579Y-92851048D01*
X85951581Y-92851049D01*
X85951584Y-92851051D01*
X86140988Y-92947557D01*
X86343157Y-93013246D01*
X86553113Y-93046500D01*
X86553114Y-93046500D01*
X86765686Y-93046500D01*
X86765687Y-93046500D01*
X86975643Y-93013246D01*
X87177812Y-92947557D01*
X87367216Y-92851051D01*
X87424541Y-92809402D01*
X87539184Y-92726110D01*
X87539184Y-92726109D01*
X87539192Y-92726104D01*
X87678367Y-92586928D01*
X87739686Y-92553446D01*
X87809378Y-92558430D01*
X87865312Y-92600301D01*
X87871584Y-92609515D01*
X87967084Y-92764345D01*
X88091054Y-92888315D01*
X88240275Y-92980356D01*
X88240280Y-92980358D01*
X88406702Y-93035505D01*
X88406709Y-93035506D01*
X88509419Y-93045999D01*
X88909399Y-93045999D01*
X88909400Y-93045998D01*
X88909400Y-91979012D01*
X88966407Y-92011925D01*
X89093574Y-92046000D01*
X89225226Y-92046000D01*
X89352393Y-92011925D01*
X89409400Y-91979012D01*
X89409400Y-93045999D01*
X89809372Y-93045999D01*
X89809386Y-93045998D01*
X89912097Y-93035505D01*
X90078519Y-92980358D01*
X90078524Y-92980356D01*
X90227745Y-92888315D01*
X90351715Y-92764345D01*
X90443756Y-92615124D01*
X90443758Y-92615119D01*
X90498905Y-92448697D01*
X90498906Y-92448690D01*
X90509399Y-92345986D01*
X90509400Y-92345973D01*
X90509400Y-91796000D01*
X89592412Y-91796000D01*
X89625325Y-91738993D01*
X89659400Y-91611826D01*
X89659400Y-91480174D01*
X89625325Y-91353007D01*
X89592412Y-91296000D01*
X90509399Y-91296000D01*
X90509399Y-90746028D01*
X90509398Y-90746013D01*
X90498905Y-90643302D01*
X90443758Y-90476880D01*
X90443756Y-90476875D01*
X90351715Y-90327654D01*
X90227745Y-90203684D01*
X90078524Y-90111643D01*
X90078519Y-90111641D01*
X89912097Y-90056494D01*
X89912090Y-90056493D01*
X89809386Y-90046000D01*
X89409400Y-90046000D01*
X89409400Y-91112988D01*
X89352393Y-91080075D01*
X89225226Y-91046000D01*
X89093574Y-91046000D01*
X88966407Y-91080075D01*
X88909400Y-91112988D01*
X88909400Y-90046000D01*
X88509428Y-90046000D01*
X88509412Y-90046001D01*
X88406702Y-90056494D01*
X88240280Y-90111641D01*
X88240275Y-90111643D01*
X88091054Y-90203684D01*
X87972381Y-90322358D01*
X87911058Y-90355843D01*
X87841366Y-90350859D01*
X87785433Y-90308987D01*
X87761016Y-90243523D01*
X87760700Y-90234677D01*
X87760700Y-90176630D01*
X87780385Y-90109591D01*
X87797019Y-90088949D01*
X88145486Y-89740482D01*
X89493152Y-88392816D01*
X89542386Y-88319129D01*
X89575284Y-88269895D01*
X89631858Y-88133313D01*
X89660700Y-87988318D01*
X89660700Y-85580028D01*
X89665624Y-85545433D01*
X89707797Y-85400273D01*
X89707798Y-85400267D01*
X89710699Y-85363401D01*
X89710700Y-85363394D01*
X89710700Y-84207006D01*
X89707798Y-84170131D01*
X89661944Y-84012302D01*
X89578281Y-83870835D01*
X89578279Y-83870833D01*
X89578276Y-83870829D01*
X89462070Y-83754623D01*
X89462067Y-83754621D01*
X89462065Y-83754619D01*
X89461749Y-83754432D01*
X89461553Y-83754222D01*
X89455902Y-83749839D01*
X89456609Y-83748927D01*
X89414066Y-83703364D01*
X89401562Y-83634623D01*
X89428206Y-83570033D01*
X89456121Y-83545844D01*
X89455902Y-83545561D01*
X89461111Y-83541520D01*
X89461750Y-83540967D01*
X89462065Y-83540781D01*
X89578281Y-83424565D01*
X89661944Y-83283098D01*
X89707798Y-83125269D01*
X89710700Y-83088394D01*
X89710700Y-81932006D01*
X89707798Y-81895131D01*
X89707797Y-81895126D01*
X89665624Y-81749965D01*
X89660700Y-81715370D01*
X89660700Y-81225628D01*
X89680385Y-81158589D01*
X89697015Y-81137951D01*
X90159048Y-80675917D01*
X90220371Y-80642433D01*
X90246729Y-80639599D01*
X91272002Y-80639599D01*
X91272008Y-80639599D01*
X91374797Y-80629099D01*
X91541334Y-80573914D01*
X91690656Y-80481812D01*
X91814712Y-80357756D01*
X91906814Y-80208434D01*
X91961999Y-80041897D01*
X91972500Y-79939109D01*
X91972499Y-79014092D01*
X91966788Y-78958182D01*
X91979558Y-78889489D01*
X92002462Y-78857903D01*
X93827970Y-77032395D01*
X93889291Y-76998912D01*
X93889627Y-76998839D01*
X93955003Y-76984944D01*
X94127930Y-76907951D01*
X94281071Y-76796688D01*
X94407733Y-76656016D01*
X94502379Y-76492084D01*
X94560874Y-76312056D01*
X94580660Y-76123800D01*
X94560874Y-75935544D01*
X94502379Y-75755516D01*
X94407733Y-75591584D01*
X94281071Y-75450912D01*
X94281070Y-75450911D01*
X94127934Y-75339651D01*
X94127929Y-75339648D01*
X93955007Y-75262657D01*
X93955002Y-75262655D01*
X93809201Y-75231665D01*
X93769846Y-75223300D01*
X93580554Y-75223300D01*
X93548097Y-75230198D01*
X93395397Y-75262655D01*
X93395392Y-75262657D01*
X93222470Y-75339648D01*
X93222465Y-75339651D01*
X93069329Y-75450911D01*
X92942666Y-75591585D01*
X92848021Y-75755515D01*
X92848019Y-75755519D01*
X92792678Y-75925841D01*
X92762428Y-75975203D01*
X92116696Y-76620933D01*
X92055373Y-76654418D01*
X92015968Y-76651600D01*
X90547000Y-76651600D01*
X90547000Y-77564099D01*
X90874170Y-77564099D01*
X90941209Y-77583784D01*
X90986964Y-77636588D01*
X90996908Y-77705746D01*
X90967883Y-77769302D01*
X90961851Y-77775780D01*
X90460349Y-78277281D01*
X90399026Y-78310766D01*
X90372668Y-78313600D01*
X89321998Y-78313600D01*
X89321980Y-78313601D01*
X89219203Y-78324100D01*
X89219200Y-78324101D01*
X89052668Y-78379285D01*
X89052663Y-78379287D01*
X88903342Y-78471389D01*
X88779289Y-78595442D01*
X88687187Y-78744763D01*
X88687186Y-78744766D01*
X88632001Y-78911303D01*
X88632001Y-78911304D01*
X88632000Y-78911304D01*
X88621500Y-79014083D01*
X88621500Y-79939101D01*
X88621501Y-79939119D01*
X88629566Y-80018060D01*
X88616796Y-80086752D01*
X88593889Y-80118342D01*
X88327250Y-80384980D01*
X88327244Y-80384988D01*
X88278012Y-80458668D01*
X88278013Y-80458669D01*
X88245121Y-80507896D01*
X88245114Y-80507908D01*
X88188542Y-80644486D01*
X88188540Y-80644492D01*
X88159700Y-80789479D01*
X88159700Y-81715370D01*
X88154776Y-81749965D01*
X88112602Y-81895126D01*
X88112601Y-81895132D01*
X88109700Y-81931998D01*
X88109700Y-83088401D01*
X88112601Y-83125267D01*
X88112602Y-83125273D01*
X88158454Y-83283093D01*
X88158455Y-83283096D01*
X88242117Y-83424562D01*
X88246902Y-83430731D01*
X88245218Y-83432036D01*
X88273446Y-83483731D01*
X88268462Y-83553423D01*
X88236434Y-83601161D01*
X88210200Y-83625402D01*
X88210200Y-83890884D01*
X88192933Y-83954004D01*
X88158454Y-84012305D01*
X88158454Y-84012306D01*
X88112602Y-84170126D01*
X88112601Y-84170132D01*
X88109700Y-84206998D01*
X88109700Y-85363401D01*
X88112601Y-85400267D01*
X88112602Y-85400273D01*
X88154776Y-85545433D01*
X88159700Y-85580028D01*
X88159700Y-87552170D01*
X88140015Y-87619209D01*
X88123381Y-87639851D01*
X87972381Y-87790851D01*
X87911058Y-87824336D01*
X87841366Y-87819352D01*
X87785433Y-87777480D01*
X87761016Y-87712016D01*
X87760700Y-87703170D01*
X87760700Y-85580028D01*
X87765624Y-85545433D01*
X87807797Y-85400273D01*
X87807798Y-85400267D01*
X87810699Y-85363401D01*
X87810700Y-85363394D01*
X87810700Y-84207006D01*
X87807798Y-84170131D01*
X87761944Y-84012302D01*
X87729241Y-83957004D01*
X87727467Y-83954004D01*
X87710200Y-83890884D01*
X87710200Y-83625402D01*
X87683965Y-83601161D01*
X87648087Y-83541207D01*
X87650318Y-83471373D01*
X87674733Y-83431688D01*
X87673498Y-83430731D01*
X87678275Y-83424570D01*
X87678281Y-83424565D01*
X87761944Y-83283098D01*
X87807798Y-83125269D01*
X87810700Y-83088394D01*
X87810700Y-81932006D01*
X87807798Y-81895131D01*
X87761944Y-81737302D01*
X87678281Y-81595835D01*
X87677968Y-81595305D01*
X87660700Y-81532184D01*
X87660700Y-81217248D01*
X87670139Y-81169795D01*
X87690539Y-81120545D01*
X87705444Y-81084562D01*
X87720900Y-80967161D01*
X87720899Y-80628440D01*
X87720899Y-80628438D01*
X87720899Y-80628436D01*
X87705446Y-80511049D01*
X87705444Y-80511044D01*
X87705444Y-80511038D01*
X87705441Y-80511031D01*
X87704877Y-80508925D01*
X87704877Y-80506724D01*
X87704384Y-80502979D01*
X87704877Y-80502914D01*
X87704877Y-80452617D01*
X87703895Y-80452488D01*
X87704877Y-80445029D01*
X87704877Y-80444723D01*
X87704956Y-80444427D01*
X87716361Y-80357800D01*
X87700593Y-80357800D01*
X87633554Y-80338115D01*
X87602217Y-80309287D01*
X87548682Y-80239518D01*
X87471343Y-80180174D01*
X87430143Y-80123748D01*
X87425988Y-80054002D01*
X87460201Y-79993081D01*
X87521918Y-79960329D01*
X87546832Y-79957800D01*
X87716359Y-79957800D01*
X87716360Y-79957798D01*
X87704957Y-79871172D01*
X87704955Y-79871166D01*
X87644500Y-79725214D01*
X87548324Y-79599875D01*
X87422986Y-79503699D01*
X87277031Y-79443244D01*
X87220400Y-79435787D01*
X87220400Y-79943300D01*
X87200715Y-80010339D01*
X87147911Y-80056094D01*
X87096400Y-80067300D01*
X86944400Y-80067300D01*
X86877361Y-80047615D01*
X86831606Y-79994811D01*
X86820400Y-79943300D01*
X86820400Y-79435787D01*
X86763768Y-79443244D01*
X86617813Y-79503699D01*
X86492475Y-79599875D01*
X86396299Y-79725213D01*
X86335845Y-79871165D01*
X86335844Y-79871169D01*
X86324438Y-79957800D01*
X86493968Y-79957800D01*
X86561007Y-79977485D01*
X86606762Y-80030289D01*
X86616706Y-80099447D01*
X86587681Y-80163003D01*
X86569458Y-80180172D01*
X86532628Y-80208434D01*
X86492118Y-80239518D01*
X86438583Y-80309287D01*
X86382155Y-80350489D01*
X86340207Y-80357800D01*
X86324441Y-80357800D01*
X86324439Y-80357801D01*
X86335842Y-80444428D01*
X86335925Y-80444735D01*
X86335925Y-80445051D01*
X86336904Y-80452489D01*
X86335925Y-80452617D01*
X86335926Y-80502916D01*
X86336417Y-80502981D01*
X86335926Y-80506703D01*
X86335927Y-80508906D01*
X86335356Y-80511035D01*
X86319900Y-80628438D01*
X86319900Y-80967163D01*
X86335353Y-81084553D01*
X86335356Y-81084562D01*
X86350261Y-81120545D01*
X86359700Y-81167998D01*
X86359700Y-81532184D01*
X86342432Y-81595305D01*
X86258455Y-81737303D01*
X86258454Y-81737306D01*
X86212602Y-81895126D01*
X86212601Y-81895132D01*
X86209700Y-81931998D01*
X86209700Y-83088401D01*
X86212601Y-83125267D01*
X86212602Y-83125273D01*
X86258454Y-83283093D01*
X86258455Y-83283096D01*
X86342117Y-83424562D01*
X86342123Y-83424570D01*
X86458329Y-83540776D01*
X86458340Y-83540785D01*
X86458655Y-83540971D01*
X86458850Y-83541180D01*
X86464498Y-83545561D01*
X86463791Y-83546472D01*
X86506336Y-83592043D01*
X86518837Y-83660785D01*
X86492188Y-83725373D01*
X86464278Y-83749556D01*
X86464498Y-83749839D01*
X86459292Y-83753876D01*
X86458655Y-83754429D01*
X86458340Y-83754614D01*
X86458329Y-83754623D01*
X86342123Y-83870829D01*
X86342117Y-83870837D01*
X86296235Y-83948421D01*
X86245166Y-83996104D01*
X86189503Y-84009300D01*
X86011470Y-84009300D01*
X85944431Y-83989615D01*
X85898676Y-83936811D01*
X85893764Y-83924305D01*
X85876046Y-83870837D01*
X85849414Y-83790466D01*
X85757312Y-83641144D01*
X85633256Y-83517088D01*
X85633252Y-83517085D01*
X85549003Y-83465119D01*
X85502278Y-83413171D01*
X85490100Y-83359581D01*
X85490100Y-76864086D01*
X88622001Y-76864086D01*
X88632494Y-76966797D01*
X88687641Y-77133219D01*
X88687643Y-77133224D01*
X88779684Y-77282445D01*
X88903654Y-77406415D01*
X89052875Y-77498456D01*
X89052880Y-77498458D01*
X89219302Y-77553605D01*
X89219309Y-77553606D01*
X89322019Y-77564099D01*
X90046999Y-77564099D01*
X90047000Y-77564098D01*
X90047000Y-76651600D01*
X88622001Y-76651600D01*
X88622001Y-76864086D01*
X85490100Y-76864086D01*
X85490100Y-75939113D01*
X88622000Y-75939113D01*
X88622000Y-76151600D01*
X90047000Y-76151600D01*
X90547000Y-76151600D01*
X91971999Y-76151600D01*
X91971999Y-75939128D01*
X91971998Y-75939113D01*
X91961505Y-75836402D01*
X91906358Y-75669980D01*
X91906356Y-75669975D01*
X91814315Y-75520754D01*
X91690345Y-75396784D01*
X91541124Y-75304743D01*
X91541119Y-75304741D01*
X91374697Y-75249594D01*
X91374690Y-75249593D01*
X91271986Y-75239100D01*
X90547000Y-75239100D01*
X90547000Y-76151600D01*
X90047000Y-76151600D01*
X90047000Y-75239100D01*
X89322028Y-75239100D01*
X89322012Y-75239101D01*
X89219302Y-75249594D01*
X89052880Y-75304741D01*
X89052875Y-75304743D01*
X88903654Y-75396784D01*
X88779684Y-75520754D01*
X88687643Y-75669975D01*
X88687641Y-75669980D01*
X88632494Y-75836402D01*
X88632493Y-75836409D01*
X88622000Y-75939113D01*
X85490100Y-75939113D01*
X85490100Y-73407549D01*
X85509785Y-73340510D01*
X85562589Y-73294755D01*
X85631747Y-73284811D01*
X85653104Y-73289843D01*
X85808102Y-73341205D01*
X85808109Y-73341206D01*
X85910819Y-73351699D01*
X86160799Y-73351699D01*
X86660800Y-73351699D01*
X86910772Y-73351699D01*
X86910786Y-73351698D01*
X87013497Y-73341205D01*
X87179919Y-73286058D01*
X87179924Y-73286056D01*
X87329145Y-73194015D01*
X87453115Y-73070045D01*
X87545156Y-72920824D01*
X87545158Y-72920819D01*
X87600305Y-72754397D01*
X87600306Y-72754390D01*
X87610799Y-72651686D01*
X87610800Y-72651673D01*
X87610800Y-72589200D01*
X86660800Y-72589200D01*
X86660800Y-73351699D01*
X86160799Y-73351699D01*
X86160800Y-73351698D01*
X86160800Y-72213200D01*
X86180485Y-72146161D01*
X86233289Y-72100406D01*
X86284800Y-72089200D01*
X87610799Y-72089200D01*
X87610799Y-72026728D01*
X87610798Y-72026713D01*
X87600305Y-71924002D01*
X87545158Y-71757580D01*
X87545156Y-71757575D01*
X87453115Y-71608354D01*
X87359495Y-71514734D01*
X87326010Y-71453411D01*
X87330994Y-71383719D01*
X87359491Y-71339376D01*
X87453512Y-71245356D01*
X87545614Y-71096034D01*
X87600799Y-70929497D01*
X87611300Y-70826709D01*
X87611299Y-70201692D01*
X87600799Y-70098903D01*
X87545614Y-69932366D01*
X87453512Y-69783044D01*
X87329456Y-69658988D01*
X87180134Y-69566886D01*
X87013597Y-69511701D01*
X87013595Y-69511700D01*
X86910810Y-69501200D01*
X85910798Y-69501200D01*
X85910780Y-69501201D01*
X85808003Y-69511700D01*
X85808000Y-69511701D01*
X85641468Y-69566885D01*
X85641463Y-69566887D01*
X85492142Y-69658989D01*
X85368088Y-69783043D01*
X85368085Y-69783047D01*
X85354670Y-69804797D01*
X85302722Y-69851522D01*
X85249132Y-69863700D01*
X85072468Y-69863700D01*
X85005429Y-69844015D01*
X84966930Y-69804797D01*
X84953514Y-69783047D01*
X84953511Y-69783043D01*
X84829457Y-69658989D01*
X84829456Y-69658988D01*
X84680134Y-69566886D01*
X84513597Y-69511701D01*
X84513595Y-69511700D01*
X84410810Y-69501200D01*
X83410798Y-69501200D01*
X83410780Y-69501201D01*
X83308003Y-69511700D01*
X83308000Y-69511701D01*
X83141468Y-69566885D01*
X83141463Y-69566887D01*
X82992142Y-69658989D01*
X82862981Y-69788151D01*
X82861069Y-69786239D01*
X82814229Y-69819382D01*
X82744428Y-69822496D01*
X82701141Y-69802398D01*
X82596334Y-69726251D01*
X82596329Y-69726248D01*
X82423407Y-69649257D01*
X82423402Y-69649255D01*
X82277601Y-69618265D01*
X82238246Y-69609900D01*
X82048954Y-69609900D01*
X82016497Y-69616798D01*
X81863797Y-69649255D01*
X81863792Y-69649257D01*
X81690870Y-69726248D01*
X81690865Y-69726251D01*
X81537729Y-69837511D01*
X81411066Y-69978185D01*
X81316421Y-70142115D01*
X81316418Y-70142122D01*
X81257927Y-70322140D01*
X81257926Y-70322144D01*
X81238140Y-70510400D01*
X81257926Y-70698656D01*
X81257927Y-70698659D01*
X81316418Y-70878677D01*
X81316421Y-70878684D01*
X81411067Y-71042616D01*
X81459165Y-71096034D01*
X81537729Y-71183288D01*
X81690865Y-71294548D01*
X81690870Y-71294551D01*
X81863792Y-71371542D01*
X81863797Y-71371544D01*
X82048954Y-71410900D01*
X82048955Y-71410900D01*
X82238244Y-71410900D01*
X82238246Y-71410900D01*
X82423403Y-71371544D01*
X82596330Y-71294551D01*
X82697327Y-71221172D01*
X82763129Y-71197694D01*
X82831183Y-71213519D01*
X82862719Y-71240510D01*
X82862981Y-71240249D01*
X82866342Y-71243610D01*
X82867473Y-71244578D01*
X82868089Y-71245357D01*
X82961751Y-71339019D01*
X82995236Y-71400342D01*
X82990252Y-71470034D01*
X82961751Y-71514381D01*
X82868089Y-71608042D01*
X82775987Y-71757363D01*
X82775985Y-71757368D01*
X82775915Y-71757580D01*
X82720801Y-71923903D01*
X82720801Y-71923904D01*
X82720800Y-71923904D01*
X82710300Y-72026683D01*
X82710300Y-72651701D01*
X82710301Y-72651719D01*
X82720800Y-72754496D01*
X82720801Y-72754499D01*
X82775985Y-72921031D01*
X82775987Y-72921036D01*
X82810869Y-72977588D01*
X82868088Y-73070356D01*
X82992144Y-73194412D01*
X83141466Y-73286514D01*
X83308003Y-73341699D01*
X83410791Y-73352200D01*
X83952491Y-73352199D01*
X84019530Y-73371883D01*
X84040172Y-73388518D01*
X84152781Y-73501127D01*
X84186266Y-73562450D01*
X84189100Y-73588808D01*
X84189100Y-83359581D01*
X84169415Y-83426620D01*
X84130197Y-83465119D01*
X84045947Y-83517085D01*
X84045943Y-83517088D01*
X83921889Y-83641142D01*
X83829787Y-83790463D01*
X83829785Y-83790468D01*
X83829715Y-83790680D01*
X83774601Y-83957003D01*
X83774601Y-83957004D01*
X83774600Y-83957004D01*
X83764100Y-84059783D01*
X83764100Y-85459801D01*
X83764101Y-85459818D01*
X83774600Y-85562596D01*
X83774601Y-85562599D01*
X83785436Y-85595296D01*
X83829786Y-85729134D01*
X83921888Y-85878456D01*
X84045944Y-86002512D01*
X84195266Y-86094614D01*
X84361803Y-86149799D01*
X84464591Y-86160300D01*
X85214608Y-86160299D01*
X85214616Y-86160298D01*
X85214619Y-86160298D01*
X85270902Y-86154548D01*
X85317397Y-86149799D01*
X85483934Y-86094614D01*
X85633256Y-86002512D01*
X85757312Y-85878456D01*
X85849414Y-85729134D01*
X85893764Y-85595294D01*
X85933536Y-85537851D01*
X85998051Y-85511028D01*
X86011469Y-85510300D01*
X86135700Y-85510300D01*
X86202739Y-85529985D01*
X86248494Y-85582789D01*
X86259700Y-85634300D01*
X86259700Y-90015779D01*
X86240015Y-90082818D01*
X86187211Y-90128573D01*
X86174022Y-90133709D01*
X86140984Y-90144444D01*
X85951579Y-90240951D01*
X85779613Y-90365890D01*
X85629290Y-90516213D01*
X85504348Y-90688184D01*
X85504347Y-90688185D01*
X85484165Y-90727795D01*
X85436191Y-90778591D01*
X85373681Y-90795500D01*
X85062480Y-90795500D01*
X84917492Y-90824340D01*
X84917482Y-90824343D01*
X84780909Y-90880913D01*
X84780907Y-90880914D01*
X84740045Y-90908218D01*
X84740043Y-90908219D01*
X84657989Y-90963043D01*
X84657984Y-90963047D01*
X82714038Y-92906992D01*
X82652715Y-92940477D01*
X82587354Y-92937017D01*
X82500999Y-92908402D01*
X82500996Y-92908401D01*
X82500991Y-92908400D01*
X82500989Y-92908400D01*
X82398208Y-92897900D01*
X79298200Y-92897900D01*
X79298183Y-92897901D01*
X79195404Y-92908400D01*
X79195401Y-92908401D01*
X79028869Y-92963585D01*
X79028864Y-92963587D01*
X78879543Y-93055690D01*
X78755490Y-93179743D01*
X78663387Y-93329064D01*
X78663385Y-93329069D01*
X78635549Y-93413071D01*
X78608201Y-93495604D01*
X78608201Y-93495605D01*
X78608200Y-93495605D01*
X78597700Y-93598385D01*
X74278474Y-93598385D01*
X74278474Y-85459786D01*
X80814601Y-85459786D01*
X80825094Y-85562497D01*
X80880241Y-85728919D01*
X80880243Y-85728924D01*
X80972284Y-85878145D01*
X81096254Y-86002115D01*
X81245475Y-86094156D01*
X81245480Y-86094158D01*
X81411902Y-86149305D01*
X81411909Y-86149306D01*
X81514619Y-86159799D01*
X81639599Y-86159799D01*
X82139600Y-86159799D01*
X82264572Y-86159799D01*
X82264586Y-86159798D01*
X82367297Y-86149305D01*
X82533719Y-86094158D01*
X82533724Y-86094156D01*
X82682945Y-86002115D01*
X82806915Y-85878145D01*
X82898956Y-85728924D01*
X82898958Y-85728919D01*
X82954105Y-85562497D01*
X82954106Y-85562490D01*
X82964599Y-85459786D01*
X82964600Y-85459773D01*
X82964600Y-85009800D01*
X82139600Y-85009800D01*
X82139600Y-86159799D01*
X81639599Y-86159799D01*
X81639600Y-86159798D01*
X81639600Y-85009800D01*
X80814601Y-85009800D01*
X80814601Y-85459786D01*
X74278474Y-85459786D01*
X74278474Y-84059813D01*
X80814600Y-84059813D01*
X80814600Y-84509800D01*
X81639600Y-84509800D01*
X82139600Y-84509800D01*
X82964599Y-84509800D01*
X82964599Y-84059828D01*
X82964598Y-84059813D01*
X82954105Y-83957102D01*
X82898958Y-83790680D01*
X82898956Y-83790675D01*
X82806915Y-83641454D01*
X82682945Y-83517484D01*
X82533724Y-83425443D01*
X82533719Y-83425441D01*
X82367297Y-83370294D01*
X82367290Y-83370293D01*
X82264586Y-83359800D01*
X82139600Y-83359800D01*
X82139600Y-84509800D01*
X81639600Y-84509800D01*
X81639600Y-83359800D01*
X81514627Y-83359800D01*
X81514612Y-83359801D01*
X81411902Y-83370294D01*
X81245480Y-83425441D01*
X81245475Y-83425443D01*
X81096254Y-83517484D01*
X80972284Y-83641454D01*
X80880243Y-83790675D01*
X80880241Y-83790680D01*
X80825094Y-83957102D01*
X80825093Y-83957109D01*
X80814600Y-84059813D01*
X74278474Y-84059813D01*
X74278474Y-67961778D01*
X74799500Y-67961778D01*
X74799500Y-68182221D01*
X74833985Y-68399952D01*
X74902103Y-68609603D01*
X74902104Y-68609606D01*
X75002187Y-68806025D01*
X75131752Y-68984358D01*
X75131756Y-68984363D01*
X75287636Y-69140243D01*
X75287641Y-69140247D01*
X75443192Y-69253260D01*
X75465978Y-69269815D01*
X75594375Y-69335237D01*
X75662393Y-69369895D01*
X75662396Y-69369896D01*
X75767221Y-69403955D01*
X75872049Y-69438015D01*
X76089778Y-69472500D01*
X76089779Y-69472500D01*
X76310221Y-69472500D01*
X76310222Y-69472500D01*
X76527951Y-69438015D01*
X76737606Y-69369895D01*
X76934022Y-69269815D01*
X77112365Y-69140242D01*
X77268242Y-68984365D01*
X77397815Y-68806022D01*
X77497895Y-68609606D01*
X77566015Y-68399951D01*
X77600500Y-68182222D01*
X77600500Y-67961778D01*
X77566015Y-67744049D01*
X77554230Y-67707778D01*
X98167500Y-67707778D01*
X98167500Y-67928221D01*
X98201985Y-68145952D01*
X98270103Y-68355603D01*
X98270104Y-68355606D01*
X98370187Y-68552025D01*
X98499752Y-68730358D01*
X98499756Y-68730363D01*
X98655636Y-68886243D01*
X98655641Y-68886247D01*
X98811192Y-68999260D01*
X98833978Y-69015815D01*
X98962375Y-69081237D01*
X99030393Y-69115895D01*
X99030396Y-69115896D01*
X99105343Y-69140247D01*
X99240049Y-69184015D01*
X99457778Y-69218500D01*
X99457779Y-69218500D01*
X99678221Y-69218500D01*
X99678222Y-69218500D01*
X99895951Y-69184015D01*
X100105606Y-69115895D01*
X100302022Y-69015815D01*
X100480365Y-68886242D01*
X100636242Y-68730365D01*
X100765815Y-68552022D01*
X100865895Y-68355606D01*
X100934015Y-68145951D01*
X100968500Y-67928222D01*
X100968500Y-67707778D01*
X100934015Y-67490049D01*
X100865895Y-67280394D01*
X100865895Y-67280393D01*
X100831237Y-67212375D01*
X100765815Y-67083978D01*
X100694526Y-66985856D01*
X100636247Y-66905641D01*
X100636243Y-66905636D01*
X100480363Y-66749756D01*
X100480358Y-66749752D01*
X100302025Y-66620187D01*
X100302024Y-66620186D01*
X100302022Y-66620185D01*
X100239096Y-66588122D01*
X100105606Y-66520104D01*
X100105603Y-66520103D01*
X99895952Y-66451985D01*
X99787086Y-66434742D01*
X99678222Y-66417500D01*
X99457778Y-66417500D01*
X99385201Y-66428995D01*
X99240047Y-66451985D01*
X99030396Y-66520103D01*
X99030393Y-66520104D01*
X98833974Y-66620187D01*
X98655641Y-66749752D01*
X98655636Y-66749756D01*
X98499756Y-66905636D01*
X98499752Y-66905641D01*
X98370187Y-67083974D01*
X98270104Y-67280393D01*
X98270103Y-67280396D01*
X98201985Y-67490047D01*
X98167500Y-67707778D01*
X77554230Y-67707778D01*
X77497895Y-67534394D01*
X77497895Y-67534393D01*
X77463237Y-67466375D01*
X77397815Y-67337978D01*
X77381260Y-67315192D01*
X77268247Y-67159641D01*
X77268243Y-67159636D01*
X77112363Y-67003756D01*
X77112358Y-67003752D01*
X76934025Y-66874187D01*
X76934024Y-66874186D01*
X76934022Y-66874185D01*
X76871096Y-66842122D01*
X76737606Y-66774104D01*
X76737603Y-66774103D01*
X76527952Y-66705985D01*
X76419086Y-66688742D01*
X76310222Y-66671500D01*
X76089778Y-66671500D01*
X76017201Y-66682995D01*
X75872047Y-66705985D01*
X75662396Y-66774103D01*
X75662393Y-66774104D01*
X75465974Y-66874187D01*
X75287641Y-67003752D01*
X75287636Y-67003756D01*
X75131756Y-67159636D01*
X75131752Y-67159641D01*
X75002187Y-67337974D01*
X74902104Y-67534393D01*
X74902103Y-67534396D01*
X74833985Y-67744047D01*
X74799500Y-67961778D01*
X74278474Y-67961778D01*
X74278474Y-66926080D01*
X74279071Y-66913924D01*
X74279888Y-66905635D01*
X74292066Y-66782004D01*
X74296806Y-66758181D01*
X74333510Y-66637189D01*
X74342807Y-66614744D01*
X74402413Y-66503232D01*
X74415909Y-66483034D01*
X74496119Y-66385298D01*
X74513298Y-66368119D01*
X74611034Y-66287909D01*
X74631234Y-66274411D01*
X74742744Y-66214807D01*
X74765189Y-66205510D01*
X74886181Y-66168806D01*
X74910004Y-66164066D01*
X75026910Y-66152549D01*
X75041925Y-66151071D01*
X75054081Y-66150474D01*
X78792082Y-66150474D01*
X96572082Y-66150474D01*
X100373440Y-66150474D01*
X100373468Y-66150475D01*
G37*
%TD.AperFunction*%
%TD*%
M02*
