%TF.GenerationSoftware,KiCad,Pcbnew,8.0.5*%
%TF.CreationDate,2024-10-16T14:13:12+03:00*%
%TF.ProjectId,H2Car_BatteryLevelndicator,48324361-725f-4426-9174-746572794c65,rev?*%
%TF.SameCoordinates,Original*%
%TF.FileFunction,Legend,Top*%
%TF.FilePolarity,Positive*%
%FSLAX46Y46*%
G04 Gerber Fmt 4.6, Leading zero omitted, Abs format (unit mm)*
G04 Created by KiCad (PCBNEW 8.0.5) date 2024-10-16 14:13:12*
%MOMM*%
%LPD*%
G01*
G04 APERTURE LIST*
%ADD10C,0.100000*%
%ADD11C,0.127000*%
%ADD12C,0.504000*%
G04 APERTURE END LIST*
D10*
X93093217Y-91753809D02*
X93236074Y-91801428D01*
X93236074Y-91801428D02*
X93283693Y-91849047D01*
X93283693Y-91849047D02*
X93331312Y-91944285D01*
X93331312Y-91944285D02*
X93331312Y-92087142D01*
X93331312Y-92087142D02*
X93283693Y-92182380D01*
X93283693Y-92182380D02*
X93236074Y-92230000D01*
X93236074Y-92230000D02*
X93140836Y-92277619D01*
X93140836Y-92277619D02*
X92759884Y-92277619D01*
X92759884Y-92277619D02*
X92759884Y-91277619D01*
X92759884Y-91277619D02*
X93093217Y-91277619D01*
X93093217Y-91277619D02*
X93188455Y-91325238D01*
X93188455Y-91325238D02*
X93236074Y-91372857D01*
X93236074Y-91372857D02*
X93283693Y-91468095D01*
X93283693Y-91468095D02*
X93283693Y-91563333D01*
X93283693Y-91563333D02*
X93236074Y-91658571D01*
X93236074Y-91658571D02*
X93188455Y-91706190D01*
X93188455Y-91706190D02*
X93093217Y-91753809D01*
X93093217Y-91753809D02*
X92759884Y-91753809D01*
X94188455Y-92277619D02*
X94188455Y-91753809D01*
X94188455Y-91753809D02*
X94140836Y-91658571D01*
X94140836Y-91658571D02*
X94045598Y-91610952D01*
X94045598Y-91610952D02*
X93855122Y-91610952D01*
X93855122Y-91610952D02*
X93759884Y-91658571D01*
X94188455Y-92230000D02*
X94093217Y-92277619D01*
X94093217Y-92277619D02*
X93855122Y-92277619D01*
X93855122Y-92277619D02*
X93759884Y-92230000D01*
X93759884Y-92230000D02*
X93712265Y-92134761D01*
X93712265Y-92134761D02*
X93712265Y-92039523D01*
X93712265Y-92039523D02*
X93759884Y-91944285D01*
X93759884Y-91944285D02*
X93855122Y-91896666D01*
X93855122Y-91896666D02*
X94093217Y-91896666D01*
X94093217Y-91896666D02*
X94188455Y-91849047D01*
X94521789Y-91610952D02*
X94902741Y-91610952D01*
X94664646Y-91277619D02*
X94664646Y-92134761D01*
X94664646Y-92134761D02*
X94712265Y-92230000D01*
X94712265Y-92230000D02*
X94807503Y-92277619D01*
X94807503Y-92277619D02*
X94902741Y-92277619D01*
X95093218Y-91610952D02*
X95474170Y-91610952D01*
X95236075Y-91277619D02*
X95236075Y-92134761D01*
X95236075Y-92134761D02*
X95283694Y-92230000D01*
X95283694Y-92230000D02*
X95378932Y-92277619D01*
X95378932Y-92277619D02*
X95474170Y-92277619D01*
X96188456Y-92230000D02*
X96093218Y-92277619D01*
X96093218Y-92277619D02*
X95902742Y-92277619D01*
X95902742Y-92277619D02*
X95807504Y-92230000D01*
X95807504Y-92230000D02*
X95759885Y-92134761D01*
X95759885Y-92134761D02*
X95759885Y-91753809D01*
X95759885Y-91753809D02*
X95807504Y-91658571D01*
X95807504Y-91658571D02*
X95902742Y-91610952D01*
X95902742Y-91610952D02*
X96093218Y-91610952D01*
X96093218Y-91610952D02*
X96188456Y-91658571D01*
X96188456Y-91658571D02*
X96236075Y-91753809D01*
X96236075Y-91753809D02*
X96236075Y-91849047D01*
X96236075Y-91849047D02*
X95759885Y-91944285D01*
X96664647Y-92277619D02*
X96664647Y-91610952D01*
X96664647Y-91801428D02*
X96712266Y-91706190D01*
X96712266Y-91706190D02*
X96759885Y-91658571D01*
X96759885Y-91658571D02*
X96855123Y-91610952D01*
X96855123Y-91610952D02*
X96950361Y-91610952D01*
X97188457Y-91610952D02*
X97426552Y-92277619D01*
X97664647Y-91610952D02*
X97426552Y-92277619D01*
X97426552Y-92277619D02*
X97331314Y-92515714D01*
X97331314Y-92515714D02*
X97283695Y-92563333D01*
X97283695Y-92563333D02*
X97188457Y-92610952D01*
X98807505Y-91896666D02*
X99569410Y-91896666D01*
X77142017Y-91348609D02*
X77284874Y-91396228D01*
X77284874Y-91396228D02*
X77332493Y-91443847D01*
X77332493Y-91443847D02*
X77380112Y-91539085D01*
X77380112Y-91539085D02*
X77380112Y-91681942D01*
X77380112Y-91681942D02*
X77332493Y-91777180D01*
X77332493Y-91777180D02*
X77284874Y-91824800D01*
X77284874Y-91824800D02*
X77189636Y-91872419D01*
X77189636Y-91872419D02*
X76808684Y-91872419D01*
X76808684Y-91872419D02*
X76808684Y-90872419D01*
X76808684Y-90872419D02*
X77142017Y-90872419D01*
X77142017Y-90872419D02*
X77237255Y-90920038D01*
X77237255Y-90920038D02*
X77284874Y-90967657D01*
X77284874Y-90967657D02*
X77332493Y-91062895D01*
X77332493Y-91062895D02*
X77332493Y-91158133D01*
X77332493Y-91158133D02*
X77284874Y-91253371D01*
X77284874Y-91253371D02*
X77237255Y-91300990D01*
X77237255Y-91300990D02*
X77142017Y-91348609D01*
X77142017Y-91348609D02*
X76808684Y-91348609D01*
X78237255Y-91872419D02*
X78237255Y-91348609D01*
X78237255Y-91348609D02*
X78189636Y-91253371D01*
X78189636Y-91253371D02*
X78094398Y-91205752D01*
X78094398Y-91205752D02*
X77903922Y-91205752D01*
X77903922Y-91205752D02*
X77808684Y-91253371D01*
X78237255Y-91824800D02*
X78142017Y-91872419D01*
X78142017Y-91872419D02*
X77903922Y-91872419D01*
X77903922Y-91872419D02*
X77808684Y-91824800D01*
X77808684Y-91824800D02*
X77761065Y-91729561D01*
X77761065Y-91729561D02*
X77761065Y-91634323D01*
X77761065Y-91634323D02*
X77808684Y-91539085D01*
X77808684Y-91539085D02*
X77903922Y-91491466D01*
X77903922Y-91491466D02*
X78142017Y-91491466D01*
X78142017Y-91491466D02*
X78237255Y-91443847D01*
X78570589Y-91205752D02*
X78951541Y-91205752D01*
X78713446Y-90872419D02*
X78713446Y-91729561D01*
X78713446Y-91729561D02*
X78761065Y-91824800D01*
X78761065Y-91824800D02*
X78856303Y-91872419D01*
X78856303Y-91872419D02*
X78951541Y-91872419D01*
X79142018Y-91205752D02*
X79522970Y-91205752D01*
X79284875Y-90872419D02*
X79284875Y-91729561D01*
X79284875Y-91729561D02*
X79332494Y-91824800D01*
X79332494Y-91824800D02*
X79427732Y-91872419D01*
X79427732Y-91872419D02*
X79522970Y-91872419D01*
X80237256Y-91824800D02*
X80142018Y-91872419D01*
X80142018Y-91872419D02*
X79951542Y-91872419D01*
X79951542Y-91872419D02*
X79856304Y-91824800D01*
X79856304Y-91824800D02*
X79808685Y-91729561D01*
X79808685Y-91729561D02*
X79808685Y-91348609D01*
X79808685Y-91348609D02*
X79856304Y-91253371D01*
X79856304Y-91253371D02*
X79951542Y-91205752D01*
X79951542Y-91205752D02*
X80142018Y-91205752D01*
X80142018Y-91205752D02*
X80237256Y-91253371D01*
X80237256Y-91253371D02*
X80284875Y-91348609D01*
X80284875Y-91348609D02*
X80284875Y-91443847D01*
X80284875Y-91443847D02*
X79808685Y-91539085D01*
X80713447Y-91872419D02*
X80713447Y-91205752D01*
X80713447Y-91396228D02*
X80761066Y-91300990D01*
X80761066Y-91300990D02*
X80808685Y-91253371D01*
X80808685Y-91253371D02*
X80903923Y-91205752D01*
X80903923Y-91205752D02*
X80999161Y-91205752D01*
X81237257Y-91205752D02*
X81475352Y-91872419D01*
X81713447Y-91205752D02*
X81475352Y-91872419D01*
X81475352Y-91872419D02*
X81380114Y-92110514D01*
X81380114Y-92110514D02*
X81332495Y-92158133D01*
X81332495Y-92158133D02*
X81237257Y-92205752D01*
X82856305Y-91491466D02*
X83618210Y-91491466D01*
X83237257Y-91872419D02*
X83237257Y-91110514D01*
X75234065Y-89329582D02*
X75281684Y-89186725D01*
X75281684Y-89186725D02*
X75329303Y-89139106D01*
X75329303Y-89139106D02*
X75424541Y-89091487D01*
X75424541Y-89091487D02*
X75567398Y-89091487D01*
X75567398Y-89091487D02*
X75662636Y-89139106D01*
X75662636Y-89139106D02*
X75710256Y-89186725D01*
X75710256Y-89186725D02*
X75757875Y-89281963D01*
X75757875Y-89281963D02*
X75757875Y-89662915D01*
X75757875Y-89662915D02*
X74757875Y-89662915D01*
X74757875Y-89662915D02*
X74757875Y-89329582D01*
X74757875Y-89329582D02*
X74805494Y-89234344D01*
X74805494Y-89234344D02*
X74853113Y-89186725D01*
X74853113Y-89186725D02*
X74948351Y-89139106D01*
X74948351Y-89139106D02*
X75043589Y-89139106D01*
X75043589Y-89139106D02*
X75138827Y-89186725D01*
X75138827Y-89186725D02*
X75186446Y-89234344D01*
X75186446Y-89234344D02*
X75234065Y-89329582D01*
X75234065Y-89329582D02*
X75234065Y-89662915D01*
X74757875Y-88805772D02*
X74757875Y-88234344D01*
X75757875Y-88520058D02*
X74757875Y-88520058D01*
X75234065Y-86805772D02*
X75281684Y-86662915D01*
X75281684Y-86662915D02*
X75329303Y-86615296D01*
X75329303Y-86615296D02*
X75424541Y-86567677D01*
X75424541Y-86567677D02*
X75567398Y-86567677D01*
X75567398Y-86567677D02*
X75662636Y-86615296D01*
X75662636Y-86615296D02*
X75710256Y-86662915D01*
X75710256Y-86662915D02*
X75757875Y-86758153D01*
X75757875Y-86758153D02*
X75757875Y-87139105D01*
X75757875Y-87139105D02*
X74757875Y-87139105D01*
X74757875Y-87139105D02*
X74757875Y-86805772D01*
X74757875Y-86805772D02*
X74805494Y-86710534D01*
X74805494Y-86710534D02*
X74853113Y-86662915D01*
X74853113Y-86662915D02*
X74948351Y-86615296D01*
X74948351Y-86615296D02*
X75043589Y-86615296D01*
X75043589Y-86615296D02*
X75138827Y-86662915D01*
X75138827Y-86662915D02*
X75186446Y-86710534D01*
X75186446Y-86710534D02*
X75234065Y-86805772D01*
X75234065Y-86805772D02*
X75234065Y-87139105D01*
X75757875Y-85710534D02*
X75234065Y-85710534D01*
X75234065Y-85710534D02*
X75138827Y-85758153D01*
X75138827Y-85758153D02*
X75091208Y-85853391D01*
X75091208Y-85853391D02*
X75091208Y-86043867D01*
X75091208Y-86043867D02*
X75138827Y-86139105D01*
X75710256Y-85710534D02*
X75757875Y-85805772D01*
X75757875Y-85805772D02*
X75757875Y-86043867D01*
X75757875Y-86043867D02*
X75710256Y-86139105D01*
X75710256Y-86139105D02*
X75615017Y-86186724D01*
X75615017Y-86186724D02*
X75519779Y-86186724D01*
X75519779Y-86186724D02*
X75424541Y-86139105D01*
X75424541Y-86139105D02*
X75376922Y-86043867D01*
X75376922Y-86043867D02*
X75376922Y-85805772D01*
X75376922Y-85805772D02*
X75329303Y-85710534D01*
X75091208Y-85377200D02*
X75091208Y-84996248D01*
X74757875Y-85234343D02*
X75615017Y-85234343D01*
X75615017Y-85234343D02*
X75710256Y-85186724D01*
X75710256Y-85186724D02*
X75757875Y-85091486D01*
X75757875Y-85091486D02*
X75757875Y-84996248D01*
X75091208Y-84805771D02*
X75091208Y-84424819D01*
X74757875Y-84662914D02*
X75615017Y-84662914D01*
X75615017Y-84662914D02*
X75710256Y-84615295D01*
X75710256Y-84615295D02*
X75757875Y-84520057D01*
X75757875Y-84520057D02*
X75757875Y-84424819D01*
X75710256Y-83710533D02*
X75757875Y-83805771D01*
X75757875Y-83805771D02*
X75757875Y-83996247D01*
X75757875Y-83996247D02*
X75710256Y-84091485D01*
X75710256Y-84091485D02*
X75615017Y-84139104D01*
X75615017Y-84139104D02*
X75234065Y-84139104D01*
X75234065Y-84139104D02*
X75138827Y-84091485D01*
X75138827Y-84091485D02*
X75091208Y-83996247D01*
X75091208Y-83996247D02*
X75091208Y-83805771D01*
X75091208Y-83805771D02*
X75138827Y-83710533D01*
X75138827Y-83710533D02*
X75234065Y-83662914D01*
X75234065Y-83662914D02*
X75329303Y-83662914D01*
X75329303Y-83662914D02*
X75424541Y-84139104D01*
X75757875Y-83234342D02*
X75091208Y-83234342D01*
X75281684Y-83234342D02*
X75186446Y-83186723D01*
X75186446Y-83186723D02*
X75138827Y-83139104D01*
X75138827Y-83139104D02*
X75091208Y-83043866D01*
X75091208Y-83043866D02*
X75091208Y-82948628D01*
X75091208Y-82710532D02*
X75757875Y-82472437D01*
X75091208Y-82234342D02*
X75757875Y-82472437D01*
X75757875Y-82472437D02*
X75995970Y-82567675D01*
X75995970Y-82567675D02*
X76043589Y-82615294D01*
X76043589Y-82615294D02*
X76091208Y-82710532D01*
X75757875Y-80948627D02*
X75710256Y-81043865D01*
X75710256Y-81043865D02*
X75615017Y-81091484D01*
X75615017Y-81091484D02*
X74757875Y-81091484D01*
X75710256Y-80186722D02*
X75757875Y-80281960D01*
X75757875Y-80281960D02*
X75757875Y-80472436D01*
X75757875Y-80472436D02*
X75710256Y-80567674D01*
X75710256Y-80567674D02*
X75615017Y-80615293D01*
X75615017Y-80615293D02*
X75234065Y-80615293D01*
X75234065Y-80615293D02*
X75138827Y-80567674D01*
X75138827Y-80567674D02*
X75091208Y-80472436D01*
X75091208Y-80472436D02*
X75091208Y-80281960D01*
X75091208Y-80281960D02*
X75138827Y-80186722D01*
X75138827Y-80186722D02*
X75234065Y-80139103D01*
X75234065Y-80139103D02*
X75329303Y-80139103D01*
X75329303Y-80139103D02*
X75424541Y-80615293D01*
X75091208Y-79805769D02*
X75757875Y-79567674D01*
X75757875Y-79567674D02*
X75091208Y-79329579D01*
X75710256Y-78567674D02*
X75757875Y-78662912D01*
X75757875Y-78662912D02*
X75757875Y-78853388D01*
X75757875Y-78853388D02*
X75710256Y-78948626D01*
X75710256Y-78948626D02*
X75615017Y-78996245D01*
X75615017Y-78996245D02*
X75234065Y-78996245D01*
X75234065Y-78996245D02*
X75138827Y-78948626D01*
X75138827Y-78948626D02*
X75091208Y-78853388D01*
X75091208Y-78853388D02*
X75091208Y-78662912D01*
X75091208Y-78662912D02*
X75138827Y-78567674D01*
X75138827Y-78567674D02*
X75234065Y-78520055D01*
X75234065Y-78520055D02*
X75329303Y-78520055D01*
X75329303Y-78520055D02*
X75424541Y-78996245D01*
X75757875Y-77948626D02*
X75710256Y-78043864D01*
X75710256Y-78043864D02*
X75615017Y-78091483D01*
X75615017Y-78091483D02*
X74757875Y-78091483D01*
X75757875Y-76805768D02*
X75091208Y-76805768D01*
X75186446Y-76805768D02*
X75138827Y-76758149D01*
X75138827Y-76758149D02*
X75091208Y-76662911D01*
X75091208Y-76662911D02*
X75091208Y-76520054D01*
X75091208Y-76520054D02*
X75138827Y-76424816D01*
X75138827Y-76424816D02*
X75234065Y-76377197D01*
X75234065Y-76377197D02*
X75757875Y-76377197D01*
X75234065Y-76377197D02*
X75138827Y-76329578D01*
X75138827Y-76329578D02*
X75091208Y-76234340D01*
X75091208Y-76234340D02*
X75091208Y-76091483D01*
X75091208Y-76091483D02*
X75138827Y-75996244D01*
X75138827Y-75996244D02*
X75234065Y-75948625D01*
X75234065Y-75948625D02*
X75757875Y-75948625D01*
X75710256Y-75091483D02*
X75757875Y-75186721D01*
X75757875Y-75186721D02*
X75757875Y-75377197D01*
X75757875Y-75377197D02*
X75710256Y-75472435D01*
X75710256Y-75472435D02*
X75615017Y-75520054D01*
X75615017Y-75520054D02*
X75234065Y-75520054D01*
X75234065Y-75520054D02*
X75138827Y-75472435D01*
X75138827Y-75472435D02*
X75091208Y-75377197D01*
X75091208Y-75377197D02*
X75091208Y-75186721D01*
X75091208Y-75186721D02*
X75138827Y-75091483D01*
X75138827Y-75091483D02*
X75234065Y-75043864D01*
X75234065Y-75043864D02*
X75329303Y-75043864D01*
X75329303Y-75043864D02*
X75424541Y-75520054D01*
X75091208Y-74758149D02*
X75091208Y-74377197D01*
X74757875Y-74615292D02*
X75615017Y-74615292D01*
X75615017Y-74615292D02*
X75710256Y-74567673D01*
X75710256Y-74567673D02*
X75757875Y-74472435D01*
X75757875Y-74472435D02*
X75757875Y-74377197D01*
X75710256Y-73662911D02*
X75757875Y-73758149D01*
X75757875Y-73758149D02*
X75757875Y-73948625D01*
X75757875Y-73948625D02*
X75710256Y-74043863D01*
X75710256Y-74043863D02*
X75615017Y-74091482D01*
X75615017Y-74091482D02*
X75234065Y-74091482D01*
X75234065Y-74091482D02*
X75138827Y-74043863D01*
X75138827Y-74043863D02*
X75091208Y-73948625D01*
X75091208Y-73948625D02*
X75091208Y-73758149D01*
X75091208Y-73758149D02*
X75138827Y-73662911D01*
X75138827Y-73662911D02*
X75234065Y-73615292D01*
X75234065Y-73615292D02*
X75329303Y-73615292D01*
X75329303Y-73615292D02*
X75424541Y-74091482D01*
X75757875Y-73186720D02*
X75091208Y-73186720D01*
X75281684Y-73186720D02*
X75186446Y-73139101D01*
X75186446Y-73139101D02*
X75138827Y-73091482D01*
X75138827Y-73091482D02*
X75091208Y-72996244D01*
X75091208Y-72996244D02*
X75091208Y-72901006D01*
X77748771Y-89377201D02*
X77701152Y-89424820D01*
X77701152Y-89424820D02*
X77558295Y-89520058D01*
X77558295Y-89520058D02*
X77463057Y-89567677D01*
X77463057Y-89567677D02*
X77320200Y-89615296D01*
X77320200Y-89615296D02*
X77082104Y-89662915D01*
X77082104Y-89662915D02*
X76891628Y-89662915D01*
X76891628Y-89662915D02*
X76653533Y-89615296D01*
X76653533Y-89615296D02*
X76510676Y-89567677D01*
X76510676Y-89567677D02*
X76415438Y-89520058D01*
X76415438Y-89520058D02*
X76272580Y-89424820D01*
X76272580Y-89424820D02*
X76224961Y-89377201D01*
X76844009Y-88662915D02*
X76844009Y-88996248D01*
X77367819Y-88996248D02*
X76367819Y-88996248D01*
X76367819Y-88996248D02*
X76367819Y-88520058D01*
X77367819Y-87996248D02*
X77320200Y-88091486D01*
X77320200Y-88091486D02*
X77272580Y-88139105D01*
X77272580Y-88139105D02*
X77177342Y-88186724D01*
X77177342Y-88186724D02*
X76891628Y-88186724D01*
X76891628Y-88186724D02*
X76796390Y-88139105D01*
X76796390Y-88139105D02*
X76748771Y-88091486D01*
X76748771Y-88091486D02*
X76701152Y-87996248D01*
X76701152Y-87996248D02*
X76701152Y-87853391D01*
X76701152Y-87853391D02*
X76748771Y-87758153D01*
X76748771Y-87758153D02*
X76796390Y-87710534D01*
X76796390Y-87710534D02*
X76891628Y-87662915D01*
X76891628Y-87662915D02*
X77177342Y-87662915D01*
X77177342Y-87662915D02*
X77272580Y-87710534D01*
X77272580Y-87710534D02*
X77320200Y-87758153D01*
X77320200Y-87758153D02*
X77367819Y-87853391D01*
X77367819Y-87853391D02*
X77367819Y-87996248D01*
X77367819Y-87234343D02*
X76701152Y-87234343D01*
X76891628Y-87234343D02*
X76796390Y-87186724D01*
X76796390Y-87186724D02*
X76748771Y-87139105D01*
X76748771Y-87139105D02*
X76701152Y-87043867D01*
X76701152Y-87043867D02*
X76701152Y-86948629D01*
X76463057Y-85901009D02*
X76415438Y-85853390D01*
X76415438Y-85853390D02*
X76367819Y-85758152D01*
X76367819Y-85758152D02*
X76367819Y-85520057D01*
X76367819Y-85520057D02*
X76415438Y-85424819D01*
X76415438Y-85424819D02*
X76463057Y-85377200D01*
X76463057Y-85377200D02*
X76558295Y-85329581D01*
X76558295Y-85329581D02*
X76653533Y-85329581D01*
X76653533Y-85329581D02*
X76796390Y-85377200D01*
X76796390Y-85377200D02*
X77367819Y-85948628D01*
X77367819Y-85948628D02*
X77367819Y-85329581D01*
X77272580Y-84329581D02*
X77320200Y-84377200D01*
X77320200Y-84377200D02*
X77367819Y-84520057D01*
X77367819Y-84520057D02*
X77367819Y-84615295D01*
X77367819Y-84615295D02*
X77320200Y-84758152D01*
X77320200Y-84758152D02*
X77224961Y-84853390D01*
X77224961Y-84853390D02*
X77129723Y-84901009D01*
X77129723Y-84901009D02*
X76939247Y-84948628D01*
X76939247Y-84948628D02*
X76796390Y-84948628D01*
X76796390Y-84948628D02*
X76605914Y-84901009D01*
X76605914Y-84901009D02*
X76510676Y-84853390D01*
X76510676Y-84853390D02*
X76415438Y-84758152D01*
X76415438Y-84758152D02*
X76367819Y-84615295D01*
X76367819Y-84615295D02*
X76367819Y-84520057D01*
X76367819Y-84520057D02*
X76415438Y-84377200D01*
X76415438Y-84377200D02*
X76463057Y-84329581D01*
X77320200Y-83520057D02*
X77367819Y-83615295D01*
X77367819Y-83615295D02*
X77367819Y-83805771D01*
X77367819Y-83805771D02*
X77320200Y-83901009D01*
X77320200Y-83901009D02*
X77224961Y-83948628D01*
X77224961Y-83948628D02*
X76844009Y-83948628D01*
X76844009Y-83948628D02*
X76748771Y-83901009D01*
X76748771Y-83901009D02*
X76701152Y-83805771D01*
X76701152Y-83805771D02*
X76701152Y-83615295D01*
X76701152Y-83615295D02*
X76748771Y-83520057D01*
X76748771Y-83520057D02*
X76844009Y-83472438D01*
X76844009Y-83472438D02*
X76939247Y-83472438D01*
X76939247Y-83472438D02*
X77034485Y-83948628D01*
X77367819Y-82901009D02*
X77320200Y-82996247D01*
X77320200Y-82996247D02*
X77224961Y-83043866D01*
X77224961Y-83043866D02*
X76367819Y-83043866D01*
X77367819Y-82377199D02*
X77320200Y-82472437D01*
X77320200Y-82472437D02*
X77224961Y-82520056D01*
X77224961Y-82520056D02*
X76367819Y-82520056D01*
X76367819Y-81329579D02*
X76367819Y-80662913D01*
X76367819Y-80662913D02*
X77367819Y-81091484D01*
X77272580Y-80281960D02*
X77320200Y-80234341D01*
X77320200Y-80234341D02*
X77367819Y-80281960D01*
X77367819Y-80281960D02*
X77320200Y-80329579D01*
X77320200Y-80329579D02*
X77272580Y-80281960D01*
X77272580Y-80281960D02*
X77367819Y-80281960D01*
X76701152Y-79377199D02*
X77367819Y-79377199D01*
X76320200Y-79615294D02*
X77034485Y-79853389D01*
X77034485Y-79853389D02*
X77034485Y-79234342D01*
X76367819Y-78996246D02*
X77367819Y-78662913D01*
X77367819Y-78662913D02*
X76367819Y-78329580D01*
X77367819Y-76758151D02*
X77367819Y-77234341D01*
X77367819Y-77234341D02*
X76367819Y-77234341D01*
X77367819Y-76424817D02*
X76701152Y-76424817D01*
X76367819Y-76424817D02*
X76415438Y-76472436D01*
X76415438Y-76472436D02*
X76463057Y-76424817D01*
X76463057Y-76424817D02*
X76415438Y-76377198D01*
X76415438Y-76377198D02*
X76367819Y-76424817D01*
X76367819Y-76424817D02*
X76463057Y-76424817D01*
X77367819Y-75948627D02*
X76367819Y-75948627D01*
X76367819Y-75948627D02*
X76367819Y-75567675D01*
X76367819Y-75567675D02*
X76415438Y-75472437D01*
X76415438Y-75472437D02*
X76463057Y-75424818D01*
X76463057Y-75424818D02*
X76558295Y-75377199D01*
X76558295Y-75377199D02*
X76701152Y-75377199D01*
X76701152Y-75377199D02*
X76796390Y-75424818D01*
X76796390Y-75424818D02*
X76844009Y-75472437D01*
X76844009Y-75472437D02*
X76891628Y-75567675D01*
X76891628Y-75567675D02*
X76891628Y-75948627D01*
X77367819Y-74805770D02*
X77320200Y-74901008D01*
X77320200Y-74901008D02*
X77272580Y-74948627D01*
X77272580Y-74948627D02*
X77177342Y-74996246D01*
X77177342Y-74996246D02*
X76891628Y-74996246D01*
X76891628Y-74996246D02*
X76796390Y-74948627D01*
X76796390Y-74948627D02*
X76748771Y-74901008D01*
X76748771Y-74901008D02*
X76701152Y-74805770D01*
X76701152Y-74805770D02*
X76701152Y-74662913D01*
X76701152Y-74662913D02*
X76748771Y-74567675D01*
X76748771Y-74567675D02*
X76796390Y-74520056D01*
X76796390Y-74520056D02*
X76891628Y-74472437D01*
X76891628Y-74472437D02*
X77177342Y-74472437D01*
X77177342Y-74472437D02*
X77272580Y-74520056D01*
X77272580Y-74520056D02*
X77320200Y-74567675D01*
X77320200Y-74567675D02*
X77367819Y-74662913D01*
X77367819Y-74662913D02*
X77367819Y-74805770D01*
X77748771Y-74139103D02*
X77701152Y-74091484D01*
X77701152Y-74091484D02*
X77558295Y-73996246D01*
X77558295Y-73996246D02*
X77463057Y-73948627D01*
X77463057Y-73948627D02*
X77320200Y-73901008D01*
X77320200Y-73901008D02*
X77082104Y-73853389D01*
X77082104Y-73853389D02*
X76891628Y-73853389D01*
X76891628Y-73853389D02*
X76653533Y-73901008D01*
X76653533Y-73901008D02*
X76510676Y-73948627D01*
X76510676Y-73948627D02*
X76415438Y-73996246D01*
X76415438Y-73996246D02*
X76272580Y-74091484D01*
X76272580Y-74091484D02*
X76224961Y-74139103D01*
D11*
%TO.C,U1*%
X83389000Y-67602100D02*
X83392728Y-66591828D01*
X83892728Y-66092100D02*
X91888000Y-66092100D01*
X92388000Y-66592100D02*
X92388000Y-67602100D01*
D10*
X94869000Y-67602100D02*
X80899000Y-67602100D01*
D11*
X83392728Y-66591828D02*
G75*
G02*
X83892728Y-66092098I500022J-292D01*
G01*
X91888000Y-66092100D02*
G75*
G02*
X92388000Y-66592100I-100J-500100D01*
G01*
D12*
X79036000Y-68018100D02*
G75*
G02*
X78532000Y-68018100I-252000J0D01*
G01*
X78532000Y-68018100D02*
G75*
G02*
X79036000Y-68018100I252000J0D01*
G01*
X80310000Y-68735100D02*
G75*
G02*
X79806000Y-68735100I-252000J0D01*
G01*
X79806000Y-68735100D02*
G75*
G02*
X80310000Y-68735100I252000J0D01*
G01*
%TD*%
M02*
